<svg id="Main_logo" data-name="Main logo" xmlns="http://www.w3.org/2000/svg" width="666" height="177" viewBox="0 0 666 177">
  <metadata><?xpacket begin="﻿" id="W5M0MpCehiHzreSzNTczkc9d"?>
<x:xmpmeta xmlns:x="adobe:ns:meta/" x:xmptk="Adobe XMP Core 5.6-c142 79.160924, 2017/07/13-01:06:39        ">
   <rdf:RDF xmlns:rdf="http://www.w3.org/1999/02/22-rdf-syntax-ns#">
      <rdf:Description rdf:about=""/>
   </rdf:RDF>
</x:xmpmeta>
                                                                                                    
                                                                                                    
                                                                                                    
                                                                                                    
                                                                                                    
                                                                                                    
                                                                                                    
                                                                                                    
                                                                                                    
                                                                                                    
                                                                                                    
                                                                                                    
                                                                                                    
                                                                                                    
                                                                                                    
                                                                                                    
                                                                                                    
                                                                                                    
                                                                                                    
                                                                                                    
                           
<?xpacket end="w"?></metadata>
<defs>
    <style>
      .cls-1 {
        fill: #00a0dc;
      }

      .cls-1, .cls-2 {
        fill-rule: evenodd;
      }

      .cls-2 {
        fill: #1268b3;
      }
    </style>
  </defs>
  <path id="Finhaat" class="cls-1" d="M4.323,43.412V98.823a0.6,0.6,0,0,0,.7.7h17.5a0.533,0.533,0,0,0,.6-0.6v-36.5a0.475,0.475,0,0,1,.5-0.5H80.78a0.569,0.569,0,0,0,.7-0.6v-17.9a0.569,0.569,0,0,0-.7-0.6H4.926A0.533,0.533,0,0,0,4.323,43.412ZM4.926,24.1H80.982a0.6,0.6,0,0,0,.7-0.7V5.9a0.744,0.744,0,0,0-.7-0.7H5.027a0.744,0.744,0,0,0-.7.7V23.5A0.533,0.533,0,0,0,4.926,24.1ZM98.2,5.7V98.924a0.533,0.533,0,0,0,.6.6h18.008a0.533,0.533,0,0,0,.6-0.6V5.7a0.509,0.509,0,0,0-.6-0.5H98.8A0.509,0.509,0,0,0,98.2,5.7Zm35.718,0V99.226a0.534,0.534,0,0,0,.6.6h17.4a0.67,0.67,0,0,0,.805-0.7V32.954a0.569,0.569,0,0,1,.6-0.6,0.533,0.533,0,0,1,.3.2c18.813,21.32,33.4,37.913,43.561,49.276,5.935,6.637,11.167,12.47,15.593,17.5a0.765,0.765,0,0,0,.4.2h22.334a0.6,0.6,0,0,0,.7-0.7V5.9a0.744,0.744,0,0,0-.7-0.7H217.715a0.826,0.826,0,0,0-.705.7V74.185c0,0.7-.4.6-0.5,0.6a1.062,1.062,0,0,1-.5-0.2L154.838,5.4a0.762,0.762,0,0,0-.4-0.2H134.517A0.509,0.509,0,0,0,133.913,5.7ZM252.738,5.9V98.924a0.533,0.533,0,0,0,.6.6h18.007a0.533,0.533,0,0,0,.6-0.6v-36.5a0.475,0.475,0,0,1,.5-0.5h55.633a0.509,0.509,0,0,1,.6.5v36.5a0.509,0.509,0,0,0,.5.6H347a0.6,0.6,0,0,0,.7-0.7V5.9a0.683,0.683,0,0,0-.7-0.7H329.2c-0.3,0-.5.2-0.5,0.7v36.4a0.509,0.509,0,0,1-.6.5H272.456a0.475,0.475,0,0,1-.5-0.5V5.9a0.744,0.744,0,0,0-.7-0.7H253.442A0.825,0.825,0,0,0,252.738,5.9ZM357.275,99.226a0.466,0.466,0,0,0,.5.3H377.9a0.554,0.554,0,0,0,.5-0.3l35.613-66.473a0.57,0.57,0,0,1,1.006,0l35.613,66.473a0.465,0.465,0,0,0,.5.3h19.919a0.555,0.555,0,0,0,.6-0.5,0.369,0.369,0,0,0-.1-0.3L421.56,5.5a0.554,0.554,0,0,0-.5-0.3h-13.38a0.421,0.421,0,0,0-.4.3l-50,93.223a0.2,0.2,0,0,0-.1.2A0.371,0.371,0,0,0,357.275,99.226Zm116.912,0a0.466,0.466,0,0,0,.5.3h20.121a0.554,0.554,0,0,0,.5-0.3l35.613-66.473a0.57,0.57,0,0,1,1.006,0l35.613,66.473a0.465,0.465,0,0,0,.5.3h19.919a0.555,0.555,0,0,0,.6-0.5,0.369,0.369,0,0,0-.1-0.3l-50-93.223a0.553,0.553,0,0,0-.5-0.3h-13.38a0.421,0.421,0,0,0-.4.3l-50,93.223a0.2,0.2,0,0,0-.1.2A0.371,0.371,0,0,0,474.187,99.226ZM566.853,5.9V23.4a0.6,0.6,0,0,0,.7.7h36.72a0.476,0.476,0,0,1,.5.5V98.823a0.6,0.6,0,0,0,.7.7H623.29a0.6,0.6,0,0,0,.705-0.7V24.607a0.509,0.509,0,0,1,.6-0.5h35.915a0.6,0.6,0,0,0,.7-0.7V5.9a0.744,0.744,0,0,0-.7-0.7H567.557A0.744,0.744,0,0,0,566.853,5.9Z"/>
  <path id="सुविधा_सुरक्षा_समृद्धि" data-name="सुविधा सुरक्षा समृद्धि" class="cls-2" d="M196.573,142.031q0,2.427-2.634,2.426a7.146,7.146,0,0,1-2.07-.326V138.9h-5.221v13.488A7.229,7.229,0,0,0,189,158.109a9.391,9.391,0,0,0,6.444,2.077,21.307,21.307,0,0,0,6.821-.934V154.4a15.9,15.9,0,0,1-5.692,1.074q-4.7,0-4.7-3.22v-3.5a16.177,16.177,0,0,0,2.728.28q3.715,0,5.41-1.773h6.256v12.694h5.221V133.4h4.093v-4.387H182.932V133.4H196.1a6.178,6.178,0,0,1,.47,2.567v6.068Zm5.127,0.746v-6.814a7.745,7.745,0,0,0-.329-2.567h4.892v9.381H201.7Zm1.67,24.106a7.347,7.347,0,0,1-1.952-1.8l-2.4-2.754h-5.974l4.468,5.368a9.828,9.828,0,0,0,3.411,2.893,9.547,9.547,0,0,0,3.927.747h4.187q3.2,0,4.633-1.447t1.435-4.62q0-3.175-1.623-4.6a6.926,6.926,0,0,0-4.7-1.424,19.492,19.492,0,0,0-4.821.467v4.107a17.406,17.406,0,0,1,4.186-.467,2.683,2.683,0,0,1,1.764.467,1.9,1.9,0,0,1,.541,1.517,1.928,1.928,0,0,1-.494,1.493,2.852,2.852,0,0,1-1.858.444h-2.634A4.64,4.64,0,0,1,203.37,166.883Zm9.008-37.874V133.4h4.092v26.556h5.268V133.4h4.093v-4.387h-4v-1.073a4.375,4.375,0,0,1,1.529-3.78q1.529-1.12,5.9-1.121t13.358,2.194v-4.667a53.777,53.777,0,0,0-14.393-2.334q-11.619,0-11.619,9.615v1.166h-4.233Zm24.977,12.135v11.2a8.431,8.431,0,0,1-2.964.42q-3.2,0-3.2-2.614v-6.814q0-2.565,3.2-2.567a13.542,13.542,0,0,1,2.964.374h0Zm-0.236-4.387a16,16,0,0,0-3.575-.42q-7.433,0-7.432,6.954v7a6.945,6.945,0,0,0,1.764,5.181q1.764,1.726,5.668,1.727a12.469,12.469,0,0,0,3.575-.42v3.173h5.269V133.4h4.092v-4.387H222.631V133.4h14.488v3.361Zm10.208,1.633q0,3.267,2.069,4.434-2.352,1.074-2.352,4.667v2.474a6.546,6.546,0,0,0,2.282,5.343q2.28,1.892,6.562,1.891a16.673,16.673,0,0,0,4.751-.56v3.313h5.268V133.4H270v-4.387h-9.36v22.962a15.251,15.251,0,0,1-4.093.561q-4.281,0-4.28-3.127v-1.727a2.427,2.427,0,0,1,.564-1.75,2.853,2.853,0,0,1,2.07-.584h2.117v-4.807h-1.882a2.761,2.761,0,0,1-2.046-.583,2.492,2.492,0,0,1-.541-1.75v-2.241a4.014,4.014,0,0,1,.658-2.567h3.387v-4.387H243.281V133.4H247.8a6.162,6.162,0,0,0-.47,2.567v2.427Zm23.566,21.562h5.268V133.4h4.093v-4.387H266.8V133.4h4.092v26.556Zm28.6-17.921q0,2.427-2.634,2.426a7.146,7.146,0,0,1-2.07-.326V138.9h-5.221v13.488a7.229,7.229,0,0,0,2.352,5.717,9.391,9.391,0,0,0,6.444,2.077,21.311,21.311,0,0,0,6.821-.934V154.4a15.9,15.9,0,0,1-5.692,1.074q-4.7,0-4.7-3.22v-3.5a16.177,16.177,0,0,0,2.728.28q3.715,0,5.41-1.773h6.256v12.694H314.4V133.4H318.5v-4.387H285.851V133.4h13.17a6.161,6.161,0,0,1,.471,2.567v6.068Zm5.127,0.746v-6.814a7.745,7.745,0,0,0-.329-2.567h4.892v9.381h-4.563Zm1.67,24.106a7.363,7.363,0,0,1-1.953-1.8l-2.4-2.754h-5.973l4.468,5.368a9.828,9.828,0,0,0,3.411,2.893,9.547,9.547,0,0,0,3.927.747h4.187q3.2,0,4.633-1.447t1.435-4.62q0-3.175-1.623-4.6a6.926,6.926,0,0,0-4.7-1.424,19.487,19.487,0,0,0-4.821.467v4.107a17.406,17.406,0,0,1,4.186-.467,2.683,2.683,0,0,1,1.764.467,1.9,1.9,0,0,1,.541,1.517,1.928,1.928,0,0,1-.494,1.493,2.852,2.852,0,0,1-1.858.444h-2.634A4.64,4.64,0,0,1,306.289,166.883Zm23.354-25.506q0,2.427-2.634,2.427a8.333,8.333,0,0,1-2.634-.42V138.9h-5.221v13.488a7.243,7.243,0,0,0,2.352,5.693,9.546,9.546,0,0,0,6.585,2.1,22.748,22.748,0,0,0,7.056-.934V154.4a17.428,17.428,0,0,1-6.068,1.074q-4.7,0-4.7-3.22v-4.294a10.9,10.9,0,0,0,3.34.42q7.149,0,7.15-6.907v-5.508a8.9,8.9,0,0,0-.283-2.567h4.093v-4.387H315.3V133.4h13.877a6.178,6.178,0,0,1,.47,2.567v5.414ZM349.47,140a3.1,3.1,0,0,1-3.622,0,2.936,2.936,0,0,1-.447-1.8v-2.567a2.853,2.853,0,0,1,.447-1.751,3.1,3.1,0,0,1,3.622,0,2.86,2.86,0,0,1,.447,1.751V138.2A2.943,2.943,0,0,1,349.47,140Zm-1.882-11.224q-7.314,0-7.314,6.814V137.6q0,3.594,1.646,4.62-2.588,1.12-2.587,4.667v3.687q0,6.956,7.2,6.954a12.15,12.15,0,0,0,3.057-.28v2.707h4.986V148.564h-4.986v4.108a6.532,6.532,0,0,1-2.234.28,2.888,2.888,0,0,1-2.093-.584,2.426,2.426,0,0,1-.565-1.75v-3.034a3.856,3.856,0,0,1,.494-2.193,2.453,2.453,0,0,1,2.094-.7h11.9v15.261h5.222V133.4h4.139v-4.387h-9.361V140.4h-4.8a5.026,5.026,0,0,0,.518-2.754V135.59Q354.9,128.777,347.588,128.776Zm21.849,31.176h5.269V133.4H378.8v-4.387H365.345V133.4h4.092v26.556Zm28.6-17.921q0,2.427-2.634,2.426a7.146,7.146,0,0,1-2.07-.326V138.9h-5.221v13.488a7.229,7.229,0,0,0,2.352,5.717,9.391,9.391,0,0,0,6.444,2.077,21.307,21.307,0,0,0,6.821-.934V154.4a15.9,15.9,0,0,1-5.692,1.074q-4.7,0-4.7-3.22v-3.5a16.177,16.177,0,0,0,2.728.28q3.715,0,5.41-1.773h6.256v12.694h5.221V133.4h4.093v-4.387H384.4V133.4h13.171a6.178,6.178,0,0,1,.47,2.567v6.068Zm5.127,0.746v-6.814a7.745,7.745,0,0,0-.329-2.567h4.892v9.381h-4.563Zm38.148,17.175V133.4h4.14v-4.387h-31.61V133.4h12.841v6.021h-2.446q-7.479,0-7.479,6.487v4.807q0,6.581,7.479,6.581t7.479-6.581v-6.86h4.469v16.1h5.127Zm-9.6-26.556h4.469v6.021h-4.469V133.4Zm-5.527,18.856a2.457,2.457,0,0,1-4.4-1.727v-4.434a2.467,2.467,0,0,1,.494-1.7,2.658,2.658,0,0,1,1.952-.536h2.446v6.674A2.555,2.555,0,0,1,426.188,152.252Zm15.123,7.56a27.727,27.727,0,0,0-4.469-.467q-7.9,0-7.9,7.211t7.9,7.211a21.18,21.18,0,0,0,4.563-.467v-4.714a26.185,26.185,0,0,1-4.7.42,3.136,3.136,0,0,1-1.882-.513,3.013,3.013,0,0,1,0-3.874,4.381,4.381,0,0,1,2.47-.513,22.26,22.26,0,0,1,4.022.42v-4.714Zm0.941-30.8V133.4h4.092v26.556h5.268V133.4h4.093v-4.387h-4v-1.026a4.2,4.2,0,0,1,1.741-3.827q1.74-1.12,5.786-1.121,7.008,0,20.461,2.287v-4.667a118.775,118.775,0,0,0-20.838-2.427q-12.372,0-12.371,9.661v1.12h-4.233Zm37.489,4.387h4v-4.387H452.505V133.4h21.968v3.314h-2.211q-4.14,0-6.045,1.587t-1.9,5.274v6.44q0,4.715,3.481,6.161-0.048,2.427-.87,3.127a5.031,5.031,0,0,1-3.128.7,7.639,7.639,0,0,1-3.293-.514,2,2,0,0,1-.988-1.96v-0.466a2.049,2.049,0,0,1,.471-1.471,2.476,2.476,0,0,1,1.787-.49h1.082v-4.06h-0.941a1.728,1.728,0,0,1-2.164-2.007v-0.467a2.185,2.185,0,0,1,.447-1.54,2.142,2.142,0,0,1,1.576-.466h0.8V142.5h-0.8a6.625,6.625,0,0,0-4.868,1.657,5.933,5.933,0,0,0-1.67,4.41v0.7q0,2.894,1.834,3.827-2.07.98-2.07,4.2v0.747q0,5.973,8.562,5.974,4.467,0,6.491-1.611t2.07-5.53a18.3,18.3,0,0,0,2.963-.327v3.547h5.174V147.678h-5.174v4.247a11.541,11.541,0,0,1-2.587.327q-2.964,0-2.963-2.381v-6.16a2.215,2.215,0,0,1,.587-1.68,3.117,3.117,0,0,1,2.141-.56h7.479V133.4Z"/>
</svg>
